Coordinates
nRows=7
nColumns=38

# SIMM Motion File Header:
name Coordinates
datacolumns 38
datarows 7
otherdata 1
range 0.53400000000000003000 0.54000000000000004000

Units are S.I. units (second, meters, Newtons, ...)
Angles are in degrees.

endheader
time	pelvis_tilt	pelvis_list	pelvis_rotation	pelvis_tx	pelvis_ty	pelvis_tz	hip_flexion_r	hip_adduction_r	hip_rotation_r	knee_angle_r	ankle_angle_r	subtalar_angle_r	mtp_angle_r	hip_flexion_l	hip_adduction_l	hip_rotation_l	knee_angle_l	ankle_angle_l	subtalar_angle_l	mtp_angle_l	lumbar_extension	lumbar_bending	lumbar_rotation	arm_flex_r	arm_add_r	arm_rot_r	elbow_flex_r	pro_sup_r	wrist_flex_r	wrist_dev_r	arm_flex_l	arm_add_l	arm_rot_l	elbow_flex_l	pro_sup_l	wrist_flex_l	wrist_dev_l
      0.53400000000000003000	     -0.58308440623801450000	      1.92671200193850090000	      0.08345479278293521700	      0.76024515465532116000	      1.00495525728447400000	     -0.30813440892402866000	     25.08695660819919500000	      2.82848522307953540000	      2.88226702668379000000	     -9.35318189011233510000	      5.09283905277347500000	      0.00000000000000000000	      0.00000000000000000000	    -17.11045071835136300000	      5.65676431755674350000	      6.34477672490834890000	    -50.95690161225086700000	    -27.59125101460347900000	      0.00000000000000000000	      0.00000000000000000000	    -11.20640750088752600000	     -4.52785116933840910000	    -13.07818648719506200000	    -40.03461016609822600000	    -15.88654174048847500000	     -8.81014107098709330000	     93.81490970024023600000	     73.71861335958877200000	      0.00000000000000000000	      0.00000000000000000000	     -0.49413902479816385000	    -23.86748172320415100000	     11.11007500891900400000	    118.69508790594458000000	     99.52997025668688000000	      0.00000000000000000000	      0.00000000000000000000
      0.53500000000000003000	     -0.44883589764077753000	      1.89788017546447900000	      0.08711943451424787600	      0.76010415381679208000	      1.00469320511475750000	     -0.30810187136404810000	     24.98965256928560300000	      2.87935293898864900000	      2.75770154662071000000	     -9.66783386984214130000	      5.12059646627412950000	     -0.00000000000000000208	     -0.00000000000000001160	    -16.96514634638877400000	      5.62291422603013570000	      6.25818741391528550000	    -51.68836114311722700000	    -27.62004377298006500000	      0.00000000000000000097	     -0.00000000000000000039	    -11.40184647684699600000	     -4.46989111482641290000	    -12.99559534157481300000	    -39.90545670260100800000	    -15.89462725509572200000	     -8.80696021735415970000	     93.85150174627435100000	     73.67368453474232100000	     -0.00000000000000000001	      0.00000000000000000109	     -0.46493253768830139000	    -23.88131299410210300000	     11.24395519957571600000	    118.60598903109984000000	     99.52278835586950800000	     -0.00000000000000000016	      0.00000000000000000187
      0.53600000000000003000	     -0.31286420124980047000	      1.86729879072133390000	      0.09053934390776656500	      0.75996105982566153000	      1.00442531234437740000	     -0.30806945875884117000	     24.89137130918010100000	      2.93213905864635870000	      2.63555999707007960000	     -9.99422516808933460000	      5.15958861934102320000	     -0.00000000000000001231	     -0.00000000000000003291	    -16.81980331399714500000	      5.58596341168288380000	      6.16843134705627260000	    -52.41792626768877000000	    -27.65394024856134400000	      0.00000000000000000218	     -0.00000000000000000589	    -11.59942849341296000000	     -4.40975095446200350000	    -12.91160893813086300000	    -39.77530899340991500000	    -15.90496523751615300000	     -8.80355805159106630000	     93.88908397812853900000	     73.62801728711961900000	     -0.00000000000000000007	      0.00000000000000000575	     -0.43682986499079246000	    -23.89415161594560600000	     11.37597829307727300000	    118.51412629610425000000	     99.51340119270136600000	     -0.00000000000000000138	      0.00000000000000000375
      0.53700000000000003000	     -0.17539451938265779000	      1.83475360042927260000	      0.09346084295445603000	      0.75981537231977225000	      1.00415184171466890000	     -0.30803706307569384000	     24.79254148185243200000	      2.98692002713197450000	      2.51444251789051610000	    -10.33230763854826200000	      5.18890771944492090000	     -0.00000000000000003109	     -0.00000000000000004943	    -16.67416974188215700000	      5.54575592926691920000	      6.07533878996454570000	    -53.14546539723937700000	    -27.69262112305003100000	      0.00000000000000000314	     -0.00000000000000001341	    -11.79892084147107500000	     -4.34720553248850730000	    -12.82591406564027300000	    -39.64403901397529500000	    -15.91767443070697200000	     -8.79996885187650690000	     93.92754973241896700000	     73.58155118675830400000	     -0.00000000000000000055	      0.00000000000000001302	     -0.40983474765931305000	    -23.90581256912373900000	     11.50608432024742800000	    118.41937601851852000000	     99.50198955265464900000	     -0.00000000000000000419	      0.00000000000000000620
      0.53800000000000003000	     -0.03614862266742401700	      1.80049034147729330000	      0.09631240581381153600	      0.75966735835298971000	      1.00387327255200790000	     -0.30800537584815268000	     24.69254310070426700000	      3.04324474349272880000	      2.39442387877808290000	    -10.68123711947167300000	      5.21222953044325440000	     -0.00000000000000005632	     -0.00000000000000006768	    -16.52862559623897500000	      5.50244325786843460000	      5.97961448295996510000	    -53.87072844035410000000	    -27.73576359632432900000	      0.00000000000000000279	     -0.00000000000000002389	    -12.00062273568846500000	     -4.28246136200997980000	    -12.73897148933816400000	    -39.51163262879686000000	    -15.93274300191547800000	     -8.79619076641146510000	     93.96695291798978600000	     73.53423444572428000000	     -0.00000000000000000179	      0.00000000000000002102	     -0.38397311108016491000	    -23.91637089825905300000	     11.63420099964123200000	    118.32187281203194000000	     99.48858430880136400000	     -0.00000000000000000912	      0.00000000000000000796
      0.53900000000000003000	      0.10501284533026206000	      1.76465751842061080000	      0.09932543208512292800	      0.75951715982176948000	      1.00358994213521880000	     -0.30797481944954758000	     24.59101739696645000000	      3.10082185039218810000	      2.27541802583689680000	    -11.04034171879753900000	      5.22952858347218810000	     -0.00000000000000008824	     -0.00000000000000008736	    -16.38339177140406000000	      5.45613205583774800000	      5.88172832769416230000	    -54.59348293389852800000	    -27.78296773004602100000	     -0.00000000000000000084	     -0.00000000000000003414	    -12.20467005206728400000	     -4.21564154883772260000	    -12.65102843502976700000	    -39.37806679210000700000	    -15.95019255540155500000	     -8.79222691736740280000	     94.00732338650144000000	     73.48600142067709800000	     -0.00000000000000000396	      0.00000000000000003125	     -0.35928548991609649000	    -23.92584362605349200000	     11.76025327229964600000	    118.22170872740686000000	     99.47325852813479200000	     -0.00000000000000001407	      0.00000000000000000820
      0.54000000000000004000	      0.24812212009443563000	      1.72740765487838920000	      0.10266228646720162000	      0.75936491851266830000	      1.00330197689551090000	     -0.30794570120949966000	     24.48774766083725400000	      3.15939903466292860000	      2.15744985782270820000	    -11.40898938558252800000	      5.24163407334535330000	     -0.00000000000000013251	     -0.00000000000000010379	    -16.23857285623640600000	      5.40695607176945000000	      5.78208448338388250000	    -55.31351755949371100000	    -27.83377201464247700000	     -0.00000000000000000507	     -0.00000000000000005225	    -12.41106787736247500000	     -4.14688686044790170000	    -12.56226475641309600000	    -39.24333723739919600000	    -15.97005314181655000000	     -8.78807720426529930000	     94.04868940531174800000	     73.43678058243982300000	     -0.00000000000000000609	      0.00000000000000004114	     -0.33584402913078865000	    -23.93423739163535300000	     11.88415907544515400000	    118.11897733453849000000	     99.45609961768893500000	     -0.00000000000000001910	      0.00000000000000000836
